<?xml version="1.0" encoding="utf-8"?>
<!-- Generator: Adobe Illustrator 16.0.0, SVG Export Plug-In . SVG Version: 6.00 Build 0)  -->
<!DOCTYPE svg PUBLIC "-//W3C//DTD SVG 1.1//EN" "http://www.w3.org/Graphics/SVG/1.1/DTD/svg11.dtd">
<svg version="1.1" xmlns="http://www.w3.org/2000/svg" xmlns:xlink="http://www.w3.org/1999/xlink" x="0px" y="0px" viewBox="0 0 64 64" width="100%" height="100%" enable-background="new 0 0 64 64" xml:space="preserve" fill="#4d4d4d">
<g id="Author">
	<path d="M32.06299,2.63721c-16.15674,0-29.30078,13.14404-29.30078,29.2998S15.90625,61.2373,32.06299,61.2373
		c16.15576,0,29.30029-13.14453,29.30029-29.30029S48.21875,2.63721,32.06299,2.63721z M38.54883,35.83203L20.06836,47.02539
		c0,0-0.28271-0.17969-0.29004-0.28125l10.62793-12.60352c0.43506,0.30371,0.96191,0.48438,1.53125,0.48438
		c1.48145,0,2.6875-1.20605,2.6875-2.6875c0-1.48193-1.20605-2.6875-2.6875-2.6875c-1.48193,0-2.6875,1.20557-2.6875,2.6875
		c0,0.73242,0.29639,1.39648,0.77393,1.88184L19.43994,46.37012c-0.00928,0.00293-0.021,0.0166-0.02979,0.0166
		c-0.09961,0.00195-0.28516-0.27734-0.28516-0.27734L26,25.6875L42.64844,9.02539l8.61328,7.2085L38.54883,35.83203z
		 M52.07129,15.60596l-8.90332-7.44873l0.63672-1.85693c4.11914,1.89209,7.74023,4.75928,10.53027,8.33691L52.07129,15.60596z"/>
</g>
</svg>
