<?xml version="1.0" encoding="utf-8"?>
<!-- Generator: Adobe Illustrator 16.0.0, SVG Export Plug-In . SVG Version: 6.00 Build 0)  -->
<!DOCTYPE svg PUBLIC "-//W3C//DTD SVG 1.1//EN" "http://www.w3.org/Graphics/SVG/1.1/DTD/svg11.dtd">
<svg version="1.1" xmlns="http://www.w3.org/2000/svg" xmlns:xlink="http://www.w3.org/1999/xlink" x="0px" y="0px" width="100%" height="100%" viewBox="0 0 64 64" enable-background="new 0 0 64 64" xml:space="preserve" fill="#4d4d4d">
<g id="Editor">
		<path d="M57.12793,56.72168l-6.59668-6.59766V7.63818c0-2.76416-2.25684-5.0127-5.03125-5.0127H20.16064L8.75,13.42236v42.86475
			c0,2.76367,2.25684,5.0127,5.03125,5.0127H45.5c2.58887,0,4.70215-1.96582,4.97656-4.47363L53.75,60.09961
			c0.93359,0.93359,2.44531,0.93359,3.37793,0C58.06152,59.16699,58.06152,57.65527,57.12793,56.72168z M20.04639,4.11035v5.0874
			c-0.01074,2.64307-1.36816,3.99365-4.03125,4.01465l-5.5874-0.00049L20.04639,4.11035z M49.53125,49.12402l-3.625-3.625
			c1.14453-1.76758,1.81641-3.86816,1.81641-6.12598c0-6.23633-5.07324-11.30957-11.30957-11.30957
			c-1.41895,0-2.77148,0.27393-4.02393,0.75293v-6.51074h11.28662v-4.05518H16.33643v4.05518h11.23242v10.03857
			c-1.53857,1.93213-2.46533,4.37256-2.46533,7.02881c0,2.68848,0.94678,5.1582,2.51904,7.10059v5.98047h4.82031v-2.50488
			c1.23779,0.4668,2.57178,0.7334,3.97021,0.7334c2.25195,0,4.34766-0.66895,6.1123-1.80762l7.00586,7.00586v0.40625
			c0,2.21289-1.80859,4.0127-4.03125,4.0127H13.78125c-2.22266,0-4.03125-1.7998-4.03125-4.0127v-42.0752l6.26904,0.00049
			c3.229-0.02539,5.01465-1.80469,5.02734-5.0127V3.62549H45.5c2.22266,0,4.03125,1.80029,4.03125,4.0127V49.12402z
			 M26.10352,39.37305c0-1.6582,0.40332-3.22168,1.10205-4.61133v9.22266C26.50684,42.59473,26.10352,41.03125,26.10352,39.37305z
			 M32.86035,29.70752c1.10938-0.40918,2.30273-0.64404,3.55273-0.64404c5.68457,0,10.30957,4.625,10.30957,10.30957
			c0,2.32617-0.7832,4.4668-2.08789,6.19434l-2.03027,2.0293c-1.72656,1.30273-3.86621,2.08594-6.19141,2.08594
			c-1.25,0-2.44336-0.23438-3.55273-0.64453V29.70752z"/>
</g>
</svg>
