<?xml version="1.0" encoding="utf-8"?>
<!-- Generator: Adobe Illustrator 16.0.0, SVG Export Plug-In . SVG Version: 6.00 Build 0)  -->
<!DOCTYPE svg PUBLIC "-//W3C//DTD SVG 1.1//EN" "http://www.w3.org/Graphics/SVG/1.1/DTD/svg11.dtd">
<svg version="1.1" xmlns="http://www.w3.org/2000/svg" xmlns:xlink="http://www.w3.org/1999/xlink" x="0px" y="0px" viewBox="0 0 64 64" enable-background="new 0 0 64 64" width="100%" height="100%" xml:space="preserve" fill="#4d4d4d">
<g id="Translator">
	<g>
		<path d="M55.53418,24.88232H30.64893c-3.17969,0-5.7666,2.56104-5.7666,5.70898V55.5918c0,3.14746,2.58691,5.70801,5.7666,5.70801
			h24.88525c3.17871,0,5.76563-2.56055,5.76563-5.70801V30.59131C61.2998,27.44336,58.71289,24.88232,55.53418,24.88232z
			 M60.2998,55.5918c0,2.5957-2.1377,4.70801-4.76563,4.70801H30.64893c-2.62842,0-4.7666-2.1123-4.7666-4.70801V30.59131
			c0-2.59668,2.13818-4.70898,4.7666-4.70898h24.88525c2.62793,0,4.76563,2.1123,4.76563,4.70898V55.5918z"/>
		<path d="M44.29004,32.9668h-2.56348h-0.02051L33.91406,53.0498h2.58398l2.32813-6h8.36426l2.32813,6h2.58398L44.31055,32.9668
			H44.29004z M39.73145,44.7168l3.27734-8.44629l3.27637,8.44629H39.73145z"/>
		<path d="M29.24756,23.9248h8.89502c0.18066-1.01074,0.29102-2.04541,0.29102-3.10742c0-9.729-7.88574-17.61768-17.61621-17.61768
			c-9.73096,0-17.61768,7.88867-17.61768,17.61768s7.88672,17.61621,17.61768,17.61621c1.03662,0,2.04639-0.10742,3.03369-0.2793
			v-8.89209c0-0.11328,0.00977-0.22363,0.01709-0.33496l-0.17578-0.06592c0,0-1.69678-0.62842-2.80957-1.46484
			c-3.33545,2.41016-9.11865,4.88037-9.11865,4.88037l-0.65234-2.20215c0,0,4.67188-2.1875,7.96338-4.60693
			c-3.70215-3.95264-5.15967-7.35205-5.15967-7.35205h2.51758c0,0,1.2041,2.22412,4.65771,5.63916
			c4.09375-4.04492,4.86475-8.62646,4.86475-8.62646l-15.9043,0.02051v-2.69141h9.54248V9.3584h2.64209v3.09912h9.34717v2.69141
			h-3.21143c0,0,0.28271,3.65967-5.35791,10.2627c0.59424,0.396,1.40869,0.91016,1.40869,0.91016l0.24414,0.12842
			c-0.00049,0.00098-0.00098,0.00195-0.00146,0.00293C25.61719,24.9375,27.31104,23.9248,29.24756,23.9248z"/>
	</g>
</g>
</svg>
